HIERARCHY
ROOT Hips
{
 OFFSET 0.000000 0.000000 0.000000
 CHANNELS 6 Xposition Yposition Zposition Yrotation Xrotation Zrotation
 JOINT Chest
 {
  OFFSET 0.000000 10.385163 0.011643
  CHANNELS 3 Yrotation Xrotation Zrotation
  JOINT Chest2
  {
   OFFSET 0.000000 11.579334 -0.021150
   CHANNELS 3 Yrotation Xrotation Zrotation
   JOINT Chest3
   {
    OFFSET 0.000000 10.463212 0.000000
    CHANNELS 3 Yrotation Xrotation Zrotation
    JOINT Chest4
    {
     OFFSET 0.000000 10.463212 0.000000
     CHANNELS 3 Yrotation Xrotation Zrotation
     JOINT Neck
     {
      OFFSET 0.000000 14.544862 0.000000
      CHANNELS 3 Yrotation Xrotation Zrotation
      JOINT Head
      {
       OFFSET 0.000000 9.730630 -0.050295
       CHANNELS 3 Yrotation Xrotation Zrotation
       End Site
       {
        OFFSET 0.000000 18.757589 -0.026270
       }
      }
     }
     JOINT RightCollar
     {
      OFFSET -2.985174 8.102313 0.000000
      CHANNELS 3 Yrotation Xrotation Zrotation
      JOINT RightShoulder
      {
       OFFSET -13.558590 0.000000 0.000000
       CHANNELS 3 Yrotation Xrotation Zrotation
       JOINT RightElbow
       {
        OFFSET -28.208579 0.000000 0.000000
        CHANNELS 3 Yrotation Xrotation Zrotation
        JOINT RightWrist
        {
         OFFSET -23.322907 0.000000 0.010349
         CHANNELS 3 Yrotation Xrotation Zrotation
         End Site
         {
          OFFSET -17.603338 0.000000 0.000000
         }
        }
       }
      }
     }
     JOINT LeftCollar
     {
      OFFSET 2.985174 8.102313 0.000000
      CHANNELS 3 Yrotation Xrotation Zrotation
      JOINT LeftShoulder
      {
       OFFSET 13.558590 0.000000 0.000000
       CHANNELS 3 Yrotation Xrotation Zrotation
       JOINT LeftElbow
       {
        OFFSET 28.208579 0.000000 0.000000
        CHANNELS 3 Yrotation Xrotation Zrotation
        JOINT LeftWrist
        {
         OFFSET 23.322907 0.000000 0.010349
         CHANNELS 3 Yrotation Xrotation Zrotation
         End Site
         {
          OFFSET 17.603338 0.000000 0.000000
         }
        }
       }
      }
     }
    }
   }
  }
 }
 JOINT RightHip
 {
  OFFSET -8.341224 -0.057053 -0.005822
  CHANNELS 3 Yrotation Xrotation Zrotation
  JOINT RightKnee
  {
   OFFSET 0.000000 -44.280013 0.005508
   CHANNELS 3 Yrotation Xrotation Zrotation
   JOINT RightAnkle
   {
    OFFSET 0.000000 -43.261728 0.009315
    CHANNELS 3 Yrotation Xrotation Zrotation
    JOINT RightToe
    {
     OFFSET 0.000000 -8.082955 18.257715
     CHANNELS 3 Yrotation Xrotation Zrotation
     End Site
     {
      OFFSET 0.000000 -1.634678 7.189621
     }
    }
   }
  }
 }
 JOINT LeftHip
 {
  OFFSET 8.341224 -0.057053 -0.005822
  CHANNELS 3 Yrotation Xrotation Zrotation
  JOINT LeftKnee
  {
   OFFSET 0.000000 -44.280013 0.005508
   CHANNELS 3 Yrotation Xrotation Zrotation
   JOINT LeftAnkle
   {
    OFFSET 0.000000 -43.261728 0.009315
    CHANNELS 3 Yrotation Xrotation Zrotation
    JOINT LeftToe
    {
     OFFSET 0.000000 -8.082955 18.257715
     CHANNELS 3 Yrotation Xrotation Zrotation
     End Site
     {
      OFFSET 0.000000 -1.634678 7.189621
     }
    }
   }
  }
 }
}
MOTION
Frames: 17
Frame Time: 0.016667
0.000000 95.489079 0.000000 0.000000 -5.826342 0.000000 0.000000 11.116423 0.000000 0.000000 -5.290081 0.000000 0.000000 0.000000 0.000000 0.000000 0.000000 0.000000 0.000000 12.665069 0.000000 0.000000 0.575450 0.000000 0.000000 0.000000 0.000000 0.000000 0.000000 0.000000 2.337306 0.000000 0.000000 -2.337306 0.000000 0.000000 0.000000 0.000000 0.000000 0.000000 0.000000 0.000000 -2.337306 0.000000 0.000000 2.337306 0.000000 0.000000 0.000000 8.578828 0.000000 0.000000 1.905768 0.000000 0.000000 -4.658254 0.000000 0.000000 0.000000 0.000000 0.000000 8.578828 0.000000 0.000000 1.905768 0.000000 0.000000 -4.658254 0.000000 0.000000 0.000000 0.000000
-151.385225 97.450933 -154.839607 106.673595 -12.084370 -1.040387 -1.117093 6.787446 2.121696 -0.526665 3.011522 0.957638 -0.526664 3.011521 0.957639 -0.399630 2.257825 0.720662 -0.294772 14.303137 -0.342556 -0.421001 -9.623245 -0.529582 -0.976393 -3.845193 5.841945 -6.017946 -8.453904 78.205249 -0.341734 25.791721 -2.263353 2.419593 1.601892 0.896581 0.437732 -5.471701 -13.678524 12.118306 -2.059788 -75.400562 7.046982 12.330333 8.137297 4.051831 0.398118 -2.954033 -5.287195 14.171060 -1.945076 -0.478016 1.599090 0.537479 -5.798895 -5.529205 3.875953 -0.000000 -0.000000 -0.000000 1.885927 14.547713 5.913627 -0.031788 0.010582 0.166356 2.981964 -3.886195 -4.886303 0.000000 0.000000 0.000000
-151.421440 97.454317 -154.867348 106.738687 -11.930061 -0.984105 -1.128586 6.693957 2.107942 -0.531162 2.969953 0.951522 -0.531161 2.969953 0.951523 -0.402910 2.226646 0.716067 -0.299435 14.338341 -0.323072 -0.437434 -9.557866 -0.491121 -0.945341 -3.805116 5.788841 -6.024227 -8.426011 78.147717 -0.979739 25.839670 -2.683860 2.335015 1.652524 1.007044 0.477368 -5.298550 -13.604859 11.594808 -2.307609 -75.654347 6.385145 12.479094 7.626188 4.064109 0.448006 -3.037539 -5.335022 13.981647 -1.990661 -0.511194 1.624328 0.537084 -5.809985 -5.525392 3.867231 0.000000 0.000000 0.000000 1.714312 14.385799 5.757274 -0.062111 -0.003139 0.217221 3.084435 -3.872165 -4.894754 -0.000000 -0.000000 -0.000000
-151.457226 97.458141 -154.892197 106.818272 -11.790784 -0.931379 -1.147491 6.611096 2.094243 -0.539000 2.933073 0.945551 -0.539000 2.933073 0.945551 -0.408704 2.198980 0.711598 -0.304583 14.364466 -0.306311 -0.453680 -9.509341 -0.457605 -0.913276 -3.771350 5.736442 -6.045947 -8.402763 78.081471 -1.572880 25.848406 -3.093833 2.259249 1.699383 1.099731 0.505985 -5.166384 -13.537139 11.113799 -2.530978 -75.882838 5.603019 12.648440 7.073241 4.039093 0.470384 -3.095620 -5.370056 13.812396 -2.034673 -0.566140 1.647601 0.533847 -5.824261 -5.521867 3.861191 -0.000000 0.000000 -0.000000 1.622389 14.228474 5.632704 -0.141893 -0.015585 0.262576 3.145675 -3.856673 -4.902002 0.000000 0.000000 0.000000
-151.492312 97.462685 -154.912823 106.921241 -11.676561 -0.882693 -1.178140 6.545186 2.079659 -0.552112 2.903678 0.939381 -0.552112 2.903678 0.939380 -0.418463 2.176918 0.707010 -0.309831 14.376610 -0.292960 -0.468761 -9.486777 -0.430461 -0.878448 -3.748324 5.685957 -6.092609 -8.384448 78.003188 -2.107726 25.802053 -3.494531 2.190609 1.740140 1.172448 0.517209 -5.100600 -13.479603 10.707822 -2.709852 -76.078622 4.627970 12.886807 6.458733 3.985701 0.471978 -3.113247 -5.380568 13.676807 -2.078479 -0.658061 1.667622 0.527177 -5.846220 -5.518686 3.860455 0.000000 0.000000 0.000000 1.673034 14.078815 5.558148 -0.311280 -0.026068 0.302363 3.135526 -3.838492 -4.909328 0.000000 0.000000 0.000000
-151.526968 97.467669 -154.930557 107.038623 -11.577399 -0.837520 -1.216236 6.489879 2.065180 -0.568578 2.878965 0.933375 -0.568578 2.878965 0.933375 -0.430745 2.158364 0.702565 -0.315556 14.379687 -0.282359 -0.483659 -9.481053 -0.408296 -0.842599 -3.731618 5.636126 -6.154712 -8.370802 77.916161 -2.596155 25.717736 -3.883485 2.130367 1.776327 1.227378 0.517341 -5.075736 -13.428294 10.343815 -2.862799 -76.250828 3.530507 13.139409 5.799375 3.895267 0.448494 -3.103236 -5.378443 13.561498 -2.121039 -0.771745 1.685708 0.517656 -5.871363 -5.515780 3.862401 -0.000000 0.000000 -0.000000 1.802948 13.934552 5.513742 -0.530109 -0.035301 0.336525 3.084149 -3.818831 -4.915542 0.000000 0.000000 0.000000
-151.561571 97.472697 -154.946502 107.157980 -11.478237 -0.798018 -1.256346 6.436785 2.053830 -0.585995 2.855221 0.928781 -0.585995 2.855221 0.928781 -0.443749 2.140533 0.699182 -0.323372 14.379364 -0.275240 -0.501131 -9.481644 -0.391864 -0.809942 -3.714365 5.583853 -6.219182 -8.365727 77.821551 -3.030079 25.610324 -4.244272 2.091021 1.807637 1.253739 0.514302 -5.056376 -13.377240 9.964564 -3.020219 -76.401431 2.410936 13.277749 5.112109 3.703925 0.358708 -3.077743 -5.386557 13.446295 -2.157265 -0.883336 1.703783 0.504205 -5.889385 -5.513261 3.861850 0.000000 0.000000 0.000000 1.902131 13.792844 5.473388 -0.727324 -0.044272 0.359560 3.040788 -3.799856 -4.915784 0.000000 0.000000 0.000000
-151.595778 97.477757 -154.960048 107.279862 -11.371860 -0.765657 -1.297762 6.381992 2.046825 -0.604048 2.830704 0.926119 -0.604048 2.830704 0.926118 -0.457238 2.122121 0.697248 -0.335343 14.376485 -0.272099 -0.524871 -9.486987 -0.381290 -0.782814 -3.694272 5.528427 -6.288567 -8.367371 77.716710 -3.398873 25.483374 -4.568853 2.083794 1.833104 1.238561 0.511705 -5.030917 -13.323541 9.547811 -3.188190 -76.524944 1.271011 13.256909 4.389469 3.359310 0.177197 -3.033313 -5.413966 13.322858 -2.182665 -0.985474 1.722853 0.484427 -5.899773 -5.512865 3.854949 0.000000 0.000000 0.000000 1.932999 13.650546 5.433020 -0.888565 -0.054565 0.363928 3.027387 -3.782915 -4.906240 0.000000 0.000000 0.000000
-151.629931 97.482862 -154.971804 107.403683 -11.265450 -0.738933 -1.341202 6.329404 2.042968 -0.623053 2.807151 0.924876 -0.623053 2.807151 0.924876 -0.471449 2.104429 0.696383 -0.349399 14.370211 -0.272443 -0.551176 -9.498639 -0.376453 -0.758898 -3.673645 5.470548 -6.360319 -8.377630 77.604301 -3.713005 25.334718 -4.865259 2.097470 1.852515 1.195112 0.505946 -5.010950 -13.270106 9.115644 -3.360542 -76.626434 0.114238 13.117857 3.650726 2.911883 -0.066047 -2.965564 -5.451618 13.199431 -2.201596 -1.085523 1.741879 0.460714 -5.903040 -5.512865 3.845551 0.000000 0.000000 -0.000000 1.933208 13.510523 5.397252 -1.028166 -0.064676 0.357208 3.021999 -3.766656 -4.890696 -0.000000 -0.000000 0.000000
-151.665436 97.487655 -154.984701 107.515325 -11.165516 -0.715599 -1.383367 6.282367 2.041666 -0.641553 2.786064 0.924755 -0.641553 2.786064 0.924755 -0.485290 2.088586 0.696357 -0.360950 14.363688 -0.275521 -0.571706 -9.510757 -0.377731 -0.735443 -3.652517 5.409258 -6.413698 -8.405982 77.493446 -3.996474 25.170662 -5.141463 2.110887 1.866935 1.151964 0.494140 -4.995853 -13.219630 8.677575 -3.549856 -76.722850 -0.953570 12.866810 2.957582 2.451852 -0.330706 -2.886619 -5.495187 13.080647 -2.222107 -1.181715 1.759703 0.439159 -5.890414 -5.508196 3.840033 0.000000 0.000000 0.000000 1.905806 13.378793 5.353762 -1.118131 -0.070938 0.356653 3.008033 -3.749181 -4.875667 -0.000000 -0.000000 0.000000
-151.705271 97.492122 -155.000574 107.613620 -11.070823 -0.696266 -1.423223 6.241603 2.044039 -0.659105 2.767764 0.926241 -0.659105 2.767764 0.926241 -0.498431 2.074833 0.697533 -0.369704 14.356860 -0.280494 -0.586237 -9.523448 -0.383660 -0.710867 -3.630296 5.342557 -6.442424 -8.456879 77.384091 -4.256566 24.993100 -5.401087 2.118781 1.873247 1.117353 0.475331 -4.987357 -13.173609 8.219002 -3.765663 -76.826089 -1.887800 12.450844 2.336003 1.963226 -0.634583 -2.813703 -5.536121 12.963427 -2.245098 -1.287011 1.777022 0.422464 -5.855280 -5.495574 3.843397 0.000000 0.000000 0.000000 1.835027 13.251921 5.294103 -1.131248 -0.069261 0.369692 2.975047 -3.728334 -4.862822 0.000000 0.000000 0.000000
-151.746458 97.496277 -155.017587 107.699728 -10.982574 -0.680416 -1.461819 6.206397 2.048992 -0.676153 2.751931 0.928863 -0.676153 2.751931 0.928863 -0.511204 2.062929 0.699561 -0.375950 14.349785 -0.288195 -0.594989 -9.536602 -0.395698 -0.686784 -3.607595 5.272429 -6.452731 -8.525844 77.276244 -4.486228 24.800770 -5.640650 2.126339 1.874723 1.083145 0.450482 -4.983702 -13.130552 7.754598 -3.998566 -76.923397 -2.728684 11.929210 1.766877 1.461010 -0.959957 -2.730118 -5.582982 12.850845 -2.269555 -1.388445 1.793147 0.407901 -5.804247 -5.478298 3.850648 0.000000 0.000000 0.000000 1.736706 13.133194 5.227213 -1.094737 -0.063793 0.388978 2.933488 -3.706266 -4.850507 0.000000 0.000000 0.000000
-151.781466 97.499805 -155.033158 107.763050 -10.910939 -0.664210 -1.498990 6.177941 2.052607 -0.692580 2.739108 0.930885 -0.692580 2.739108 0.930885 -0.523512 2.053285 0.701138 -0.375975 14.345791 -0.300382 -0.590287 -9.544048 -0.418607 -0.665202 -3.586289 5.203875 -6.442605 -8.608950 77.179096 -4.687985 24.595068 -5.857556 2.128046 1.882503 1.053144 0.419585 -4.979009 -13.088678 7.337720 -4.232374 -76.995023 -3.501296 11.479757 1.235154 1.083771 -1.215837 -2.603470 -5.657079 12.756756 -2.300495 -1.445351 1.804824 0.393465 -5.748378 -5.461174 3.853169 0.000000 0.000000 0.000000 1.661211 13.038856 5.166602 -1.062269 -0.063165 0.409559 2.898102 -3.687536 -4.840248 -0.000000 -0.000000 0.000000
-151.807005 97.502361 -155.046842 107.798920 -10.863470 -0.646390 -1.534616 6.159389 2.052918 -0.708319 2.730705 0.931445 -0.708319 2.730705 0.931445 -0.535304 2.046958 0.701619 -0.366666 14.345337 -0.317738 -0.566010 -9.544923 -0.454886 -0.647392 -3.565752 5.138953 -6.401384 -8.710337 77.095981 -4.872061 24.371243 -6.058297 2.118955 1.904988 1.030958 0.378760 -4.968123 -13.045946 6.983029 -4.468933 -77.034907 -4.214560 11.126262 0.724783 0.916368 -1.367973 -2.406104 -5.777964 12.689611 -2.342764 -1.434430 1.811327 0.378509 -5.687935 -5.446659 3.846816 0.000000 0.000000 0.000000 1.624931 12.980197 5.116072 -1.051367 -0.071895 0.430612 2.875088 -3.673527 -4.832814 0.000000 0.000000 0.000000
-151.826366 97.504289 -155.059084 107.812013 -10.832596 -0.628340 -1.568838 6.147599 2.051884 -0.723443 2.725316 0.931405 -0.723443 2.725316 0.931405 -0.546637 2.042894 0.701651 -0.351144 14.347959 -0.339583 -0.528296 -9.540076 -0.502039 -0.632059 -3.546699 5.075583 -6.339697 -8.825925 77.023518 -5.028453 24.134455 -6.236902 2.104103 1.933991 1.012837 0.331884 -4.956146 -13.004421 6.675489 -4.705403 -77.049295 -4.862567 10.847445 0.242903 0.876434 -1.452496 -2.172345 -5.926066 12.640807 -2.391309 -1.378982 1.813361 0.363748 -5.622662 -5.432293 3.835736 0.000000 0.000000 0.000000 1.611343 12.945989 5.071640 -1.044514 -0.085443 0.452932 2.858243 -3.662865 -4.827420 0.000000 -0.000000 0.000000
-151.841896 97.506302 -155.068642 107.805747 -10.805806 -0.610194 -1.601869 6.134325 2.051486 -0.738042 2.719272 0.931627 -0.738042 2.719272 0.931627 -0.557577 2.038338 0.701876 -0.335047 14.355589 -0.365641 -0.487869 -9.525913 -0.557342 -0.617320 -3.533027 5.012575 -6.287466 -8.939494 76.960950 -5.129482 23.900941 -6.372470 2.092946 1.955735 0.991582 0.290566 -4.952599 -12.968473 6.423731 -4.918085 -77.037902 -5.452349 10.752936 -0.199916 0.853556 -1.484901 -1.964240 -6.064001 12.598656 -2.436267 -1.308232 1.809813 0.349238 -5.562843 -5.415492 3.823735 0.000000 0.000000 0.000000 1.621382 12.918802 5.034892 -1.042808 -0.098799 0.473935 2.843713 -3.655978 -4.823247 -0.000000 -0.000000 -0.000000
-151.853777 97.508624 -155.074485 107.778798 -10.779917 -0.591141 -1.634460 6.116380 2.052061 -0.752440 2.711150 0.932258 -0.752440 2.711151 0.932258 -0.568365 2.032225 0.702404 -0.318277 14.371101 -0.396942 -0.444162 -9.497083 -0.622762 -0.601562 -3.528293 4.947619 -6.257050 -9.046304 76.910886 -5.167401 23.669648 -6.461684 2.084736 1.967390 0.968631 0.260015 -4.962350 -12.941166 6.235839 -5.098696 -76.990549 -5.993477 10.941157 -0.611553 0.817100 -1.451744 -1.802299 -6.193852 12.559161 -2.476671 -1.212580 1.801299 0.332655 -5.515115 -5.396764 3.811085 -0.000000 -0.000000 0.000000 1.667975 12.893542 5.009052 -1.056913 -0.110357 0.492092 2.830480 -3.654563 -4.820035 0.000000 0.000000 0.000000
